<mxfile host="app.diagrams.net" agent="Mozilla/5.0 (Windows NT 10.0; Win64; x64) AppleWebKit/537.36 (KHTML, like Gecko) Chrome/138.0.0.0 Safari/537.36 OPR/122.0.0.0" version="28.2.8">
  <diagram name="Page-1" id="8aOiOuELyFN7KEbBp4VM">
    <mxGraphModel grid="1" page="1" gridSize="10" guides="1" tooltips="1" connect="1" arrows="1" fold="1" pageScale="1" pageWidth="850" pageHeight="1100" math="0" shadow="0">
      <root>
        <mxCell id="0" />
        <mxCell id="1" parent="0" />
        <mxCell id="zsTLEiBzGREs_1x2PoIM-4" value="&lt;div&gt;&lt;br&gt;&lt;/div&gt;Movie&lt;div&gt;&lt;br&gt;&lt;/div&gt;" style="rounded=0;whiteSpace=wrap;html=1;fillColor=#1ba1e2;fontColor=#ffffff;strokeColor=#006EAF;" vertex="1" parent="1">
          <mxGeometry x="120" y="-1140" width="120" height="50" as="geometry" />
        </mxCell>
        <mxCell id="vxruLnOHUtcmjbPu3ubK-53" style="edgeStyle=orthogonalEdgeStyle;rounded=0;orthogonalLoop=1;jettySize=auto;html=1;endArrow=none;endFill=0;startArrow=classic;startFill=1;entryX=0.5;entryY=1;entryDx=0;entryDy=0;exitX=0.75;exitY=0;exitDx=0;exitDy=0;" edge="1" parent="1" source="zsTLEiBzGREs_1x2PoIM-5" target="vxruLnOHUtcmjbPu3ubK-51">
          <mxGeometry relative="1" as="geometry">
            <mxPoint x="370" y="-130" as="sourcePoint" />
            <mxPoint x="998" y="-330" as="targetPoint" />
            <Array as="points">
              <mxPoint x="370" y="-220" />
              <mxPoint x="1030" y="-220" />
              <mxPoint x="1030" y="-330" />
              <mxPoint x="1028" y="-330" />
            </Array>
          </mxGeometry>
        </mxCell>
        <mxCell id="vxruLnOHUtcmjbPu3ubK-90" style="edgeStyle=orthogonalEdgeStyle;rounded=0;orthogonalLoop=1;jettySize=auto;html=1;exitX=0.75;exitY=1;exitDx=0;exitDy=0;entryX=0;entryY=0.5;entryDx=0;entryDy=0;endArrow=none;endFill=0;startArrow=classic;startFill=1;" edge="1" parent="1" source="zsTLEiBzGREs_1x2PoIM-5" target="vxruLnOHUtcmjbPu3ubK-87">
          <mxGeometry relative="1" as="geometry" />
        </mxCell>
        <mxCell id="zsTLEiBzGREs_1x2PoIM-5" value="User" style="rounded=0;whiteSpace=wrap;html=1;fillColor=#1ba1e2;fontColor=#ffffff;strokeColor=#006EAF;" vertex="1" parent="1">
          <mxGeometry x="280" y="-120" width="120" height="50" as="geometry" />
        </mxCell>
        <mxCell id="zsTLEiBzGREs_1x2PoIM-10" value="e&lt;span style=&quot;background-color: transparent; color: light-dark(rgb(255, 255, 255), rgb(18, 18, 18));&quot;&gt;mail&lt;/span&gt;" style="ellipse;whiteSpace=wrap;html=1;fillColor=#1ba1e2;fontColor=#ffffff;strokeColor=#006EAF;" vertex="1" parent="1">
          <mxGeometry x="145" y="-30" width="80" height="50" as="geometry" />
        </mxCell>
        <mxCell id="zsTLEiBzGREs_1x2PoIM-11" value="created_at" style="ellipse;whiteSpace=wrap;html=1;fillColor=#1ba1e2;fontColor=#ffffff;strokeColor=#006EAF;" vertex="1" parent="1">
          <mxGeometry x="200" y="70" width="75" height="45" as="geometry" />
        </mxCell>
        <mxCell id="zsTLEiBzGREs_1x2PoIM-12" value="" style="endArrow=none;html=1;rounded=0;entryX=0.5;entryY=0;entryDx=0;entryDy=0;exitX=0.5;exitY=1;exitDx=0;exitDy=0;" edge="1" parent="1" source="zsTLEiBzGREs_1x2PoIM-5" target="zsTLEiBzGREs_1x2PoIM-11">
          <mxGeometry width="50" height="50" relative="1" as="geometry">
            <mxPoint x="610" y="-30" as="sourcePoint" />
            <mxPoint x="660" y="-80" as="targetPoint" />
          </mxGeometry>
        </mxCell>
        <mxCell id="I68fqMjgQM5Uv_WliGqD-2" value="" style="endArrow=none;html=1;rounded=0;exitX=0.5;exitY=1;exitDx=0;exitDy=0;entryX=0.5;entryY=0;entryDx=0;entryDy=0;" edge="1" parent="1" source="zsTLEiBzGREs_1x2PoIM-5" target="zsTLEiBzGREs_1x2PoIM-10">
          <mxGeometry width="50" height="50" relative="1" as="geometry">
            <mxPoint x="530" y="10" as="sourcePoint" />
            <mxPoint x="510" y="-130" as="targetPoint" />
          </mxGeometry>
        </mxCell>
        <mxCell id="I68fqMjgQM5Uv_WliGqD-4" value="user_id" style="ellipse;whiteSpace=wrap;html=1;fillColor=#1ba1e2;fontColor=#ffffff;strokeColor=#006EAF;" vertex="1" parent="1">
          <mxGeometry x="290" y="110" width="80" height="50" as="geometry" />
        </mxCell>
        <mxCell id="I68fqMjgQM5Uv_WliGqD-5" value="" style="endArrow=none;html=1;rounded=0;exitX=0.5;exitY=1;exitDx=0;exitDy=0;entryX=0.5;entryY=0;entryDx=0;entryDy=0;" edge="1" parent="1" source="zsTLEiBzGREs_1x2PoIM-5" target="I68fqMjgQM5Uv_WliGqD-4">
          <mxGeometry width="50" height="50" relative="1" as="geometry">
            <mxPoint x="540" y="55" as="sourcePoint" />
            <mxPoint x="690" y="-117" as="targetPoint" />
          </mxGeometry>
        </mxCell>
        <mxCell id="I68fqMjgQM5Uv_WliGqD-6" value="movie_id" style="ellipse;whiteSpace=wrap;html=1;fillColor=#1ba1e2;fontColor=#ffffff;strokeColor=#006EAF;" vertex="1" parent="1">
          <mxGeometry x="30" y="-1240" width="80" height="50" as="geometry" />
        </mxCell>
        <mxCell id="I68fqMjgQM5Uv_WliGqD-7" value="" style="endArrow=none;html=1;rounded=0;entryX=0.5;entryY=1;entryDx=0;entryDy=0;exitX=0.5;exitY=0;exitDx=0;exitDy=0;" edge="1" parent="1" source="zsTLEiBzGREs_1x2PoIM-4" target="I68fqMjgQM5Uv_WliGqD-6">
          <mxGeometry width="50" height="50" relative="1" as="geometry">
            <mxPoint x="165" y="-1050" as="sourcePoint" />
            <mxPoint x="170" y="-1120" as="targetPoint" />
          </mxGeometry>
        </mxCell>
        <mxCell id="I68fqMjgQM5Uv_WliGqD-8" value="title" style="ellipse;whiteSpace=wrap;html=1;fillColor=#1ba1e2;fontColor=#ffffff;strokeColor=#006EAF;" vertex="1" parent="1">
          <mxGeometry x="120" y="-1270" width="80" height="50" as="geometry" />
        </mxCell>
        <mxCell id="I68fqMjgQM5Uv_WliGqD-9" value="" style="endArrow=none;html=1;rounded=0;entryX=0.5;entryY=1;entryDx=0;entryDy=0;exitX=0.5;exitY=0;exitDx=0;exitDy=0;" edge="1" parent="1" source="zsTLEiBzGREs_1x2PoIM-4" target="I68fqMjgQM5Uv_WliGqD-8">
          <mxGeometry width="50" height="50" relative="1" as="geometry">
            <mxPoint x="180" y="-1060" as="sourcePoint" />
            <mxPoint x="210" y="-1110" as="targetPoint" />
          </mxGeometry>
        </mxCell>
        <mxCell id="I68fqMjgQM5Uv_WliGqD-10" value="year" style="ellipse;whiteSpace=wrap;html=1;fillColor=#1ba1e2;fontColor=#ffffff;strokeColor=#006EAF;" vertex="1" parent="1">
          <mxGeometry x="220" y="-1280" width="80" height="50" as="geometry" />
        </mxCell>
        <mxCell id="I68fqMjgQM5Uv_WliGqD-11" value="" style="endArrow=none;html=1;rounded=0;exitX=0.5;exitY=0;exitDx=0;exitDy=0;entryX=0.5;entryY=1;entryDx=0;entryDy=0;" edge="1" parent="1" source="zsTLEiBzGREs_1x2PoIM-4" target="I68fqMjgQM5Uv_WliGqD-10">
          <mxGeometry width="50" height="50" relative="1" as="geometry">
            <mxPoint x="235" y="-1040" as="sourcePoint" />
            <mxPoint x="310" y="-1070" as="targetPoint" />
          </mxGeometry>
        </mxCell>
        <mxCell id="I68fqMjgQM5Uv_WliGqD-12" value="runtime" style="ellipse;whiteSpace=wrap;html=1;fillColor=#1ba1e2;fontColor=#ffffff;strokeColor=#006EAF;" vertex="1" parent="1">
          <mxGeometry x="347.5" y="-1270" width="80" height="50" as="geometry" />
        </mxCell>
        <mxCell id="I68fqMjgQM5Uv_WliGqD-13" value="" style="endArrow=none;html=1;rounded=0;exitX=0.5;exitY=0;exitDx=0;exitDy=0;entryX=0.5;entryY=1;entryDx=0;entryDy=0;" edge="1" parent="1" source="zsTLEiBzGREs_1x2PoIM-4" target="I68fqMjgQM5Uv_WliGqD-12">
          <mxGeometry width="50" height="50" relative="1" as="geometry">
            <mxPoint x="280" y="-1010" as="sourcePoint" />
            <mxPoint x="375" y="-1090" as="targetPoint" />
          </mxGeometry>
        </mxCell>
        <mxCell id="I68fqMjgQM5Uv_WliGqD-126" style="edgeStyle=orthogonalEdgeStyle;rounded=0;orthogonalLoop=1;jettySize=auto;html=1;exitX=0.5;exitY=0;exitDx=0;exitDy=0;entryX=0.5;entryY=1;entryDx=0;entryDy=0;endArrow=none;endFill=0;startArrow=classic;startFill=1;" edge="1" parent="1" source="I68fqMjgQM5Uv_WliGqD-14" target="I68fqMjgQM5Uv_WliGqD-124">
          <mxGeometry relative="1" as="geometry" />
        </mxCell>
        <mxCell id="I68fqMjgQM5Uv_WliGqD-129" style="edgeStyle=orthogonalEdgeStyle;rounded=0;orthogonalLoop=1;jettySize=auto;html=1;exitX=0.25;exitY=0;exitDx=0;exitDy=0;endArrow=none;endFill=0;startArrow=classic;startFill=1;" edge="1" parent="1" source="I68fqMjgQM5Uv_WliGqD-14" target="I68fqMjgQM5Uv_WliGqD-112">
          <mxGeometry relative="1" as="geometry" />
        </mxCell>
        <mxCell id="I68fqMjgQM5Uv_WliGqD-14" value="&lt;div&gt;Show&lt;/div&gt;" style="rounded=0;whiteSpace=wrap;html=1;fillColor=#1ba1e2;fontColor=#ffffff;strokeColor=#006EAF;" vertex="1" parent="1">
          <mxGeometry x="1670" y="340" width="120" height="50" as="geometry" />
        </mxCell>
        <mxCell id="I68fqMjgQM5Uv_WliGqD-15" value="show_id" style="ellipse;whiteSpace=wrap;html=1;fillColor=#1ba1e2;fontColor=#ffffff;strokeColor=#006EAF;" vertex="1" parent="1">
          <mxGeometry x="1770" y="610" width="80" height="50" as="geometry" />
        </mxCell>
        <mxCell id="I68fqMjgQM5Uv_WliGqD-16" value="" style="endArrow=none;html=1;rounded=0;entryX=0.5;entryY=0;entryDx=0;entryDy=0;exitX=0.5;exitY=1;exitDx=0;exitDy=0;" edge="1" parent="1" source="I68fqMjgQM5Uv_WliGqD-14" target="I68fqMjgQM5Uv_WliGqD-15">
          <mxGeometry width="50" height="50" relative="1" as="geometry">
            <mxPoint x="1735" y="360" as="sourcePoint" />
            <mxPoint x="1740" y="290" as="targetPoint" />
          </mxGeometry>
        </mxCell>
        <mxCell id="I68fqMjgQM5Uv_WliGqD-17" value="title" style="ellipse;whiteSpace=wrap;html=1;fillColor=#1ba1e2;fontColor=#ffffff;strokeColor=#006EAF;" vertex="1" parent="1">
          <mxGeometry x="1830" y="560" width="80" height="50" as="geometry" />
        </mxCell>
        <mxCell id="I68fqMjgQM5Uv_WliGqD-18" value="" style="endArrow=none;html=1;rounded=0;entryX=0;entryY=0;entryDx=0;entryDy=0;exitX=0.5;exitY=1;exitDx=0;exitDy=0;" edge="1" parent="1" source="I68fqMjgQM5Uv_WliGqD-14" target="I68fqMjgQM5Uv_WliGqD-17">
          <mxGeometry width="50" height="50" relative="1" as="geometry">
            <mxPoint x="1750" y="350" as="sourcePoint" />
            <mxPoint x="1780" y="300" as="targetPoint" />
          </mxGeometry>
        </mxCell>
        <mxCell id="I68fqMjgQM5Uv_WliGqD-19" value="year" style="ellipse;whiteSpace=wrap;html=1;fillColor=#1ba1e2;fontColor=#ffffff;strokeColor=#006EAF;" vertex="1" parent="1">
          <mxGeometry x="1920" y="520" width="80" height="50" as="geometry" />
        </mxCell>
        <mxCell id="I68fqMjgQM5Uv_WliGqD-20" value="" style="endArrow=none;html=1;rounded=0;exitX=0.5;exitY=1;exitDx=0;exitDy=0;entryX=0;entryY=0;entryDx=0;entryDy=0;" edge="1" parent="1" source="I68fqMjgQM5Uv_WliGqD-14" target="I68fqMjgQM5Uv_WliGqD-19">
          <mxGeometry width="50" height="50" relative="1" as="geometry">
            <mxPoint x="1805" y="370" as="sourcePoint" />
            <mxPoint x="1880" y="340" as="targetPoint" />
          </mxGeometry>
        </mxCell>
        <mxCell id="I68fqMjgQM5Uv_WliGqD-21" value="first_air_date" style="ellipse;whiteSpace=wrap;html=1;fillColor=#1ba1e2;fontColor=#ffffff;strokeColor=#006EAF;" vertex="1" parent="1">
          <mxGeometry x="1655" y="540" width="80" height="50" as="geometry" />
        </mxCell>
        <mxCell id="I68fqMjgQM5Uv_WliGqD-22" value="" style="endArrow=none;html=1;rounded=0;entryX=0.5;entryY=0;entryDx=0;entryDy=0;" edge="1" parent="1" source="I68fqMjgQM5Uv_WliGqD-14" target="I68fqMjgQM5Uv_WliGqD-21">
          <mxGeometry width="50" height="50" relative="1" as="geometry">
            <mxPoint x="1850" y="400" as="sourcePoint" />
            <mxPoint x="1945" y="320" as="targetPoint" />
          </mxGeometry>
        </mxCell>
        <mxCell id="I68fqMjgQM5Uv_WliGqD-24" value="season_id" style="ellipse;whiteSpace=wrap;html=1;fillColor=#1ba1e2;fontColor=#ffffff;strokeColor=#006EAF;" vertex="1" parent="1">
          <mxGeometry x="1250" y="-210" width="80" height="50" as="geometry" />
        </mxCell>
        <mxCell id="I68fqMjgQM5Uv_WliGqD-25" value="" style="endArrow=none;html=1;rounded=0;entryX=0.5;entryY=1;entryDx=0;entryDy=0;exitX=0.5;exitY=0;exitDx=0;exitDy=0;" edge="1" parent="1" source="I68fqMjgQM5Uv_WliGqD-105" target="I68fqMjgQM5Uv_WliGqD-24">
          <mxGeometry width="50" height="50" relative="1" as="geometry">
            <mxPoint x="1310" y="-130" as="sourcePoint" />
            <mxPoint x="1285" y="-210" as="targetPoint" />
          </mxGeometry>
        </mxCell>
        <mxCell id="I68fqMjgQM5Uv_WliGqD-26" value="show_id" style="ellipse;whiteSpace=wrap;html=1;fillColor=#1ba1e2;fontColor=#ffffff;strokeColor=#006EAF;" vertex="1" parent="1">
          <mxGeometry x="1330" y="-270" width="80" height="50" as="geometry" />
        </mxCell>
        <mxCell id="I68fqMjgQM5Uv_WliGqD-27" value="" style="endArrow=none;html=1;rounded=0;entryX=0.5;entryY=1;entryDx=0;entryDy=0;exitX=0.5;exitY=0;exitDx=0;exitDy=0;" edge="1" parent="1" source="I68fqMjgQM5Uv_WliGqD-105" target="I68fqMjgQM5Uv_WliGqD-26">
          <mxGeometry width="50" height="50" relative="1" as="geometry">
            <mxPoint x="1310" y="-130" as="sourcePoint" />
            <mxPoint x="1325" y="-200" as="targetPoint" />
          </mxGeometry>
        </mxCell>
        <mxCell id="I68fqMjgQM5Uv_WliGqD-28" value="season_number" style="ellipse;whiteSpace=wrap;html=1;fillColor=#1ba1e2;fontColor=#ffffff;strokeColor=#006EAF;" vertex="1" parent="1">
          <mxGeometry x="1420" y="-230" width="100" height="50" as="geometry" />
        </mxCell>
        <mxCell id="I68fqMjgQM5Uv_WliGqD-29" value="" style="endArrow=none;html=1;rounded=0;entryX=0.5;entryY=1;entryDx=0;entryDy=0;exitX=0.5;exitY=0;exitDx=0;exitDy=0;" edge="1" parent="1" source="I68fqMjgQM5Uv_WliGqD-105" target="I68fqMjgQM5Uv_WliGqD-28">
          <mxGeometry width="50" height="50" relative="1" as="geometry">
            <mxPoint x="1310" y="-130" as="sourcePoint" />
            <mxPoint x="1425" y="-160" as="targetPoint" />
          </mxGeometry>
        </mxCell>
        <mxCell id="I68fqMjgQM5Uv_WliGqD-33" value="episode_id" style="ellipse;whiteSpace=wrap;html=1;fillColor=#1ba1e2;fontColor=#ffffff;strokeColor=#006EAF;" vertex="1" parent="1">
          <mxGeometry x="1520" y="-185" width="80" height="50" as="geometry" />
        </mxCell>
        <mxCell id="I68fqMjgQM5Uv_WliGqD-34" value="" style="endArrow=none;html=1;rounded=0;entryX=0.5;entryY=1;entryDx=0;entryDy=0;exitX=0.5;exitY=0;exitDx=0;exitDy=0;" edge="1" parent="1" source="I68fqMjgQM5Uv_WliGqD-103" target="I68fqMjgQM5Uv_WliGqD-33">
          <mxGeometry width="50" height="50" relative="1" as="geometry">
            <mxPoint x="1660" y="-80" as="sourcePoint" />
            <mxPoint x="1635" y="-160" as="targetPoint" />
          </mxGeometry>
        </mxCell>
        <mxCell id="I68fqMjgQM5Uv_WliGqD-35" value="season_id" style="ellipse;whiteSpace=wrap;html=1;fillColor=#1ba1e2;fontColor=#ffffff;strokeColor=#006EAF;" vertex="1" parent="1">
          <mxGeometry x="1650" y="-290" width="80" height="50" as="geometry" />
        </mxCell>
        <mxCell id="I68fqMjgQM5Uv_WliGqD-36" value="" style="endArrow=none;html=1;rounded=0;entryX=0.5;entryY=1;entryDx=0;entryDy=0;exitX=0.5;exitY=0;exitDx=0;exitDy=0;" edge="1" parent="1" source="I68fqMjgQM5Uv_WliGqD-103" target="I68fqMjgQM5Uv_WliGqD-35">
          <mxGeometry width="50" height="50" relative="1" as="geometry">
            <mxPoint x="1660" y="-80" as="sourcePoint" />
            <mxPoint x="1675" y="-150" as="targetPoint" />
          </mxGeometry>
        </mxCell>
        <mxCell id="I68fqMjgQM5Uv_WliGqD-37" value="episode_number" style="ellipse;whiteSpace=wrap;html=1;fillColor=#1ba1e2;fontColor=#ffffff;strokeColor=#006EAF;" vertex="1" parent="1">
          <mxGeometry x="1745" y="-265" width="105" height="50" as="geometry" />
        </mxCell>
        <mxCell id="I68fqMjgQM5Uv_WliGqD-38" value="" style="endArrow=none;html=1;rounded=0;exitX=0.5;exitY=0;exitDx=0;exitDy=0;entryX=0.5;entryY=1;entryDx=0;entryDy=0;" edge="1" parent="1" source="I68fqMjgQM5Uv_WliGqD-103" target="I68fqMjgQM5Uv_WliGqD-37">
          <mxGeometry width="50" height="50" relative="1" as="geometry">
            <mxPoint x="1660" y="-80" as="sourcePoint" />
            <mxPoint x="1775" y="-110" as="targetPoint" />
          </mxGeometry>
        </mxCell>
        <mxCell id="I68fqMjgQM5Uv_WliGqD-39" value="air_date" style="ellipse;whiteSpace=wrap;html=1;fillColor=#1ba1e2;fontColor=#ffffff;strokeColor=#006EAF;" vertex="1" parent="1">
          <mxGeometry x="1775" y="-170" width="80" height="50" as="geometry" />
        </mxCell>
        <mxCell id="I68fqMjgQM5Uv_WliGqD-40" value="" style="endArrow=none;html=1;rounded=0;exitX=0.5;exitY=0;exitDx=0;exitDy=0;entryX=0.5;entryY=1;entryDx=0;entryDy=0;" edge="1" parent="1" source="I68fqMjgQM5Uv_WliGqD-103" target="I68fqMjgQM5Uv_WliGqD-39">
          <mxGeometry width="50" height="50" relative="1" as="geometry">
            <mxPoint x="1660" y="-80" as="sourcePoint" />
            <mxPoint x="1840" y="-130" as="targetPoint" />
          </mxGeometry>
        </mxCell>
        <mxCell id="I68fqMjgQM5Uv_WliGqD-135" style="edgeStyle=orthogonalEdgeStyle;rounded=0;orthogonalLoop=1;jettySize=auto;html=1;entryX=0;entryY=0.5;entryDx=0;entryDy=0;endArrow=none;endFill=0;" edge="1" parent="1" source="I68fqMjgQM5Uv_WliGqD-41" target="I68fqMjgQM5Uv_WliGqD-78">
          <mxGeometry relative="1" as="geometry" />
        </mxCell>
        <mxCell id="I68fqMjgQM5Uv_WliGqD-41" value="person" style="rounded=0;whiteSpace=wrap;html=1;fillColor=#1ba1e2;fontColor=#ffffff;strokeColor=#006EAF;" vertex="1" parent="1">
          <mxGeometry x="20" y="190" width="120" height="50" as="geometry" />
        </mxCell>
        <mxCell id="I68fqMjgQM5Uv_WliGqD-42" value="person_id" style="ellipse;whiteSpace=wrap;html=1;fillColor=#1ba1e2;fontColor=#ffffff;strokeColor=#006EAF;" vertex="1" parent="1">
          <mxGeometry x="10" y="490" width="80" height="50" as="geometry" />
        </mxCell>
        <mxCell id="I68fqMjgQM5Uv_WliGqD-43" value="" style="endArrow=none;html=1;rounded=0;exitX=0.5;exitY=1;exitDx=0;exitDy=0;" edge="1" parent="1" source="I68fqMjgQM5Uv_WliGqD-41" target="I68fqMjgQM5Uv_WliGqD-42">
          <mxGeometry width="50" height="50" relative="1" as="geometry">
            <mxPoint x="125" y="280" as="sourcePoint" />
            <mxPoint x="130" y="210" as="targetPoint" />
          </mxGeometry>
        </mxCell>
        <mxCell id="I68fqMjgQM5Uv_WliGqD-44" value="" style="endArrow=none;html=1;rounded=0;exitX=0.5;exitY=1;exitDx=0;exitDy=0;entryX=0.5;entryY=1;entryDx=0;entryDy=0;" edge="1" parent="1" source="I68fqMjgQM5Uv_WliGqD-41" target="I68fqMjgQM5Uv_WliGqD-49">
          <mxGeometry width="50" height="50" relative="1" as="geometry">
            <mxPoint x="140" y="270" as="sourcePoint" />
            <mxPoint x="170" y="200" as="targetPoint" />
          </mxGeometry>
        </mxCell>
        <mxCell id="I68fqMjgQM5Uv_WliGqD-49" value="name" style="ellipse;whiteSpace=wrap;html=1;fillColor=#1ba1e2;fontColor=#ffffff;strokeColor=#006EAF;fontStyle=4" vertex="1" parent="1">
          <mxGeometry x="120" y="510" width="80" height="50" as="geometry" />
        </mxCell>
        <mxCell id="I68fqMjgQM5Uv_WliGqD-50" value="&lt;div&gt;Genre&lt;/div&gt;" style="rounded=0;whiteSpace=wrap;html=1;fillColor=#1ba1e2;fontColor=#ffffff;strokeColor=#006EAF;" vertex="1" parent="1">
          <mxGeometry x="1875" y="-1150" width="120" height="50" as="geometry" />
        </mxCell>
        <mxCell id="I68fqMjgQM5Uv_WliGqD-51" value="genre_id" style="ellipse;whiteSpace=wrap;html=1;fillColor=#1ba1e2;fontColor=#ffffff;strokeColor=#006EAF;" vertex="1" parent="1">
          <mxGeometry x="1925" y="-1320" width="80" height="50" as="geometry" />
        </mxCell>
        <mxCell id="I68fqMjgQM5Uv_WliGqD-52" value="" style="endArrow=none;html=1;rounded=0;entryX=0.5;entryY=1;entryDx=0;entryDy=0;exitX=0.5;exitY=0;exitDx=0;exitDy=0;" edge="1" parent="1" source="I68fqMjgQM5Uv_WliGqD-50" target="I68fqMjgQM5Uv_WliGqD-51">
          <mxGeometry width="50" height="50" relative="1" as="geometry">
            <mxPoint x="1960" y="-1170" as="sourcePoint" />
            <mxPoint x="1965" y="-1240" as="targetPoint" />
          </mxGeometry>
        </mxCell>
        <mxCell id="I68fqMjgQM5Uv_WliGqD-53" value="" style="endArrow=none;html=1;rounded=0;exitX=0.5;exitY=0;exitDx=0;exitDy=0;entryX=0.5;entryY=1;entryDx=0;entryDy=0;" edge="1" parent="1" source="I68fqMjgQM5Uv_WliGqD-50" target="I68fqMjgQM5Uv_WliGqD-54">
          <mxGeometry width="50" height="50" relative="1" as="geometry">
            <mxPoint x="1975" y="-1180" as="sourcePoint" />
            <mxPoint x="2005" y="-1250" as="targetPoint" />
          </mxGeometry>
        </mxCell>
        <mxCell id="I68fqMjgQM5Uv_WliGqD-54" value="name" style="ellipse;whiteSpace=wrap;html=1;fillColor=#1ba1e2;fontColor=#ffffff;strokeColor=#006EAF;" vertex="1" parent="1">
          <mxGeometry x="2020" y="-1330" width="80" height="50" as="geometry" />
        </mxCell>
        <mxCell id="I68fqMjgQM5Uv_WliGqD-66" value="" style="endArrow=none;html=1;rounded=0;exitX=1;exitY=0.5;exitDx=0;exitDy=0;" edge="1" parent="1" source="zsTLEiBzGREs_1x2PoIM-4" target="I68fqMjgQM5Uv_WliGqD-67">
          <mxGeometry width="50" height="50" relative="1" as="geometry">
            <mxPoint x="260" y="-1015" as="sourcePoint" />
            <mxPoint x="390" y="-1012" as="targetPoint" />
          </mxGeometry>
        </mxCell>
        <mxCell id="X9R9V341Ypi2XemGrjvR-19" style="edgeStyle=orthogonalEdgeStyle;rounded=0;orthogonalLoop=1;jettySize=auto;html=1;exitX=1;exitY=0.5;exitDx=0;exitDy=0;entryX=0;entryY=0.5;entryDx=0;entryDy=0;endArrow=none;endFill=0;" edge="1" parent="1" source="I68fqMjgQM5Uv_WliGqD-67" target="I68fqMjgQM5Uv_WliGqD-50">
          <mxGeometry relative="1" as="geometry" />
        </mxCell>
        <mxCell id="I68fqMjgQM5Uv_WliGqD-67" value="movie_genres" style="rhombus;whiteSpace=wrap;html=1;fillColor=#1ba1e2;fontColor=#ffffff;strokeColor=#006EAF;" vertex="1" parent="1">
          <mxGeometry x="600" y="-1155" width="115" height="80" as="geometry" />
        </mxCell>
        <mxCell id="I68fqMjgQM5Uv_WliGqD-74" value="features_movie" style="rhombus;whiteSpace=wrap;html=1;fillColor=#1ba1e2;fontColor=#ffffff;strokeColor=#006EAF;" vertex="1" parent="1">
          <mxGeometry x="22.5" y="-280" width="115" height="80" as="geometry" />
        </mxCell>
        <mxCell id="I68fqMjgQM5Uv_WliGqD-76" value="" style="endArrow=none;html=1;rounded=0;entryX=0.5;entryY=1;entryDx=0;entryDy=0;exitX=0.5;exitY=0;exitDx=0;exitDy=0;" edge="1" parent="1" source="I68fqMjgQM5Uv_WliGqD-41" target="I68fqMjgQM5Uv_WliGqD-74">
          <mxGeometry width="50" height="50" relative="1" as="geometry">
            <mxPoint x="164" y="200" as="sourcePoint" />
            <mxPoint x="330" y="200" as="targetPoint" />
          </mxGeometry>
        </mxCell>
        <mxCell id="vxruLnOHUtcmjbPu3ubK-38" style="edgeStyle=orthogonalEdgeStyle;rounded=0;orthogonalLoop=1;jettySize=auto;html=1;exitX=1;exitY=0.5;exitDx=0;exitDy=0;entryX=0.25;entryY=1;entryDx=0;entryDy=0;endArrow=none;endFill=0;" edge="1" parent="1" source="I68fqMjgQM5Uv_WliGqD-78" target="I68fqMjgQM5Uv_WliGqD-14">
          <mxGeometry relative="1" as="geometry">
            <Array as="points">
              <mxPoint x="1290" y="600" />
              <mxPoint x="1290" y="410" />
              <mxPoint x="1400" y="410" />
              <mxPoint x="1400" y="430" />
              <mxPoint x="1700" y="430" />
            </Array>
          </mxGeometry>
        </mxCell>
        <mxCell id="I68fqMjgQM5Uv_WliGqD-78" value="features_show" style="rhombus;whiteSpace=wrap;html=1;fillColor=#1ba1e2;fontColor=#ffffff;strokeColor=#006EAF;" vertex="1" parent="1">
          <mxGeometry x="420" y="560" width="115" height="80" as="geometry" />
        </mxCell>
        <mxCell id="I68fqMjgQM5Uv_WliGqD-103" value="Episode" style="shape=ext;double=1;rounded=0;whiteSpace=wrap;html=1;fillColor=#1ba1e2;fontColor=#ffffff;strokeColor=#006EAF;" vertex="1" parent="1">
          <mxGeometry x="1610" y="-70" width="120" height="60" as="geometry" />
        </mxCell>
        <mxCell id="I68fqMjgQM5Uv_WliGqD-105" value="Season" style="shape=ext;double=1;rounded=0;whiteSpace=wrap;html=1;fillColor=#1ba1e2;fontColor=#ffffff;strokeColor=#006EAF;" vertex="1" parent="1">
          <mxGeometry x="1340" y="-80" width="120" height="60" as="geometry" />
        </mxCell>
        <mxCell id="I68fqMjgQM5Uv_WliGqD-112" value="" style="rhombus;whiteSpace=wrap;html=1;fillColor=#1ba1e2;fontColor=#ffffff;strokeColor=#006EAF;" vertex="1" parent="1">
          <mxGeometry x="1425" y="80" width="120" height="80" as="geometry" />
        </mxCell>
        <mxCell id="I68fqMjgQM5Uv_WliGqD-115" style="edgeStyle=orthogonalEdgeStyle;rounded=0;orthogonalLoop=1;jettySize=auto;html=1;exitX=0.5;exitY=0;exitDx=0;exitDy=0;entryX=0.5;entryY=1;entryDx=0;entryDy=0;endArrow=none;endFill=0;" edge="1" parent="1" source="I68fqMjgQM5Uv_WliGqD-113" target="I68fqMjgQM5Uv_WliGqD-105">
          <mxGeometry relative="1" as="geometry">
            <Array as="points">
              <mxPoint x="1485" y="20" />
              <mxPoint x="1400" y="20" />
            </Array>
          </mxGeometry>
        </mxCell>
        <mxCell id="I68fqMjgQM5Uv_WliGqD-113" value="has_season" style="rhombus;whiteSpace=wrap;html=1;fillColor=#1ba1e2;fontColor=#ffffff;strokeColor=#006EAF;shadow=0;" vertex="1" parent="1">
          <mxGeometry x="1430" y="85" width="110" height="70" as="geometry" />
        </mxCell>
        <mxCell id="I68fqMjgQM5Uv_WliGqD-117" value="" style="edgeStyle=orthogonalEdgeStyle;rounded=0;orthogonalLoop=1;jettySize=auto;html=1;strokeColor=default;endArrow=none;endFill=0;" edge="1" parent="1" source="I68fqMjgQM5Uv_WliGqD-14" target="I68fqMjgQM5Uv_WliGqD-71">
          <mxGeometry relative="1" as="geometry">
            <mxPoint x="1790" y="365" as="sourcePoint" />
            <mxPoint x="1963" y="-240" as="targetPoint" />
          </mxGeometry>
        </mxCell>
        <mxCell id="I68fqMjgQM5Uv_WliGqD-118" style="edgeStyle=orthogonalEdgeStyle;rounded=0;orthogonalLoop=1;jettySize=auto;html=1;entryX=0.5;entryY=1;entryDx=0;entryDy=0;endArrow=none;endFill=0;" edge="1" parent="1" source="I68fqMjgQM5Uv_WliGqD-71" target="I68fqMjgQM5Uv_WliGqD-50">
          <mxGeometry relative="1" as="geometry" />
        </mxCell>
        <mxCell id="I68fqMjgQM5Uv_WliGqD-71" value="show_genres" style="rhombus;whiteSpace=wrap;html=1;fillColor=#1ba1e2;fontColor=#ffffff;strokeColor=#006EAF;" vertex="1" parent="1">
          <mxGeometry x="1902.5" y="-280" width="115" height="80" as="geometry" />
        </mxCell>
        <mxCell id="I68fqMjgQM5Uv_WliGqD-127" style="edgeStyle=orthogonalEdgeStyle;rounded=0;orthogonalLoop=1;jettySize=auto;html=1;entryX=0.5;entryY=1;entryDx=0;entryDy=0;endArrow=none;endFill=0;" edge="1" parent="1" source="I68fqMjgQM5Uv_WliGqD-123" target="I68fqMjgQM5Uv_WliGqD-103">
          <mxGeometry relative="1" as="geometry" />
        </mxCell>
        <mxCell id="vxruLnOHUtcmjbPu3ubK-98" style="edgeStyle=orthogonalEdgeStyle;rounded=0;orthogonalLoop=1;jettySize=auto;html=1;exitX=0;exitY=0.5;exitDx=0;exitDy=0;entryX=1;entryY=0.5;entryDx=0;entryDy=0;" edge="1" parent="1" source="I68fqMjgQM5Uv_WliGqD-124" target="I68fqMjgQM5Uv_WliGqD-105">
          <mxGeometry relative="1" as="geometry" />
        </mxCell>
        <mxCell id="I68fqMjgQM5Uv_WliGqD-123" value="" style="rhombus;whiteSpace=wrap;html=1;fillColor=#1ba1e2;fontColor=#ffffff;strokeColor=#006EAF;" vertex="1" parent="1">
          <mxGeometry x="1685" y="85" width="120" height="80" as="geometry" />
        </mxCell>
        <mxCell id="I68fqMjgQM5Uv_WliGqD-124" value="has_episode" style="rhombus;whiteSpace=wrap;html=1;fillColor=#1ba1e2;fontColor=#ffffff;strokeColor=#006EAF;" vertex="1" parent="1">
          <mxGeometry x="1690" y="90" width="110" height="70" as="geometry" />
        </mxCell>
        <mxCell id="I68fqMjgQM5Uv_WliGqD-131" style="edgeStyle=orthogonalEdgeStyle;rounded=0;orthogonalLoop=1;jettySize=auto;html=1;exitX=0.5;exitY=1;exitDx=0;exitDy=0;entryX=0.5;entryY=0;entryDx=0;entryDy=0;endArrow=none;endFill=0;" edge="1" parent="1" source="zsTLEiBzGREs_1x2PoIM-4" target="I68fqMjgQM5Uv_WliGqD-74">
          <mxGeometry relative="1" as="geometry" />
        </mxCell>
        <mxCell id="X9R9V341Ypi2XemGrjvR-2" value="Watchlist" style="rounded=0;whiteSpace=wrap;html=1;fillColor=#1ba1e2;fontColor=#ffffff;strokeColor=#006EAF;" vertex="1" parent="1">
          <mxGeometry x="1525" y="-580" width="120" height="50" as="geometry" />
        </mxCell>
        <mxCell id="X9R9V341Ypi2XemGrjvR-3" value="watchlist_id" style="ellipse;whiteSpace=wrap;html=1;fillColor=#1ba1e2;fontColor=#ffffff;strokeColor=#006EAF;" vertex="1" parent="1">
          <mxGeometry x="1445" y="-730" width="80" height="50" as="geometry" />
        </mxCell>
        <mxCell id="X9R9V341Ypi2XemGrjvR-4" value="user_id" style="ellipse;whiteSpace=wrap;html=1;fillColor=#1ba1e2;fontColor=#ffffff;strokeColor=#006EAF;" vertex="1" parent="1">
          <mxGeometry x="1545" y="-750" width="80" height="50" as="geometry" />
        </mxCell>
        <mxCell id="X9R9V341Ypi2XemGrjvR-5" value="" style="endArrow=none;html=1;rounded=0;entryX=0.5;entryY=1;entryDx=0;entryDy=0;exitX=0.5;exitY=0;exitDx=0;exitDy=0;" edge="1" parent="1" source="X9R9V341Ypi2XemGrjvR-2" target="X9R9V341Ypi2XemGrjvR-3">
          <mxGeometry width="50" height="50" relative="1" as="geometry">
            <mxPoint x="1585" y="-590" as="sourcePoint" />
            <mxPoint x="1505" y="-670" as="targetPoint" />
          </mxGeometry>
        </mxCell>
        <mxCell id="X9R9V341Ypi2XemGrjvR-6" value="" style="endArrow=none;html=1;rounded=0;entryX=0.5;entryY=1;entryDx=0;entryDy=0;exitX=0.5;exitY=0;exitDx=0;exitDy=0;" edge="1" parent="1" source="X9R9V341Ypi2XemGrjvR-2" target="X9R9V341Ypi2XemGrjvR-4">
          <mxGeometry width="50" height="50" relative="1" as="geometry">
            <mxPoint x="1585" y="-590" as="sourcePoint" />
            <mxPoint x="1645" y="-620" as="targetPoint" />
          </mxGeometry>
        </mxCell>
        <mxCell id="X9R9V341Ypi2XemGrjvR-10" style="edgeStyle=orthogonalEdgeStyle;rounded=0;orthogonalLoop=1;jettySize=auto;html=1;endArrow=none;endFill=0;entryX=0.5;entryY=1;entryDx=0;entryDy=0;" edge="1" parent="1" source="X9R9V341Ypi2XemGrjvR-8" target="zsTLEiBzGREs_1x2PoIM-4">
          <mxGeometry relative="1" as="geometry">
            <mxPoint x="180" y="-1090" as="targetPoint" />
          </mxGeometry>
        </mxCell>
        <mxCell id="X9R9V341Ypi2XemGrjvR-11" style="edgeStyle=orthogonalEdgeStyle;rounded=0;orthogonalLoop=1;jettySize=auto;html=1;entryX=0;entryY=0.5;entryDx=0;entryDy=0;endArrow=none;endFill=0;" edge="1" parent="1" source="X9R9V341Ypi2XemGrjvR-8" target="X9R9V341Ypi2XemGrjvR-2">
          <mxGeometry relative="1" as="geometry">
            <Array as="points">
              <mxPoint x="1425" y="-740" />
              <mxPoint x="1425" y="-555" />
            </Array>
          </mxGeometry>
        </mxCell>
        <mxCell id="X9R9V341Ypi2XemGrjvR-8" value="contains_movie" style="rhombus;whiteSpace=wrap;html=1;fillColor=#1ba1e2;fontColor=#ffffff;strokeColor=#006EAF;" vertex="1" parent="1">
          <mxGeometry x="1275" y="-1060" width="115" height="80" as="geometry" />
        </mxCell>
        <mxCell id="X9R9V341Ypi2XemGrjvR-17" style="edgeStyle=orthogonalEdgeStyle;rounded=0;orthogonalLoop=1;jettySize=auto;html=1;exitX=0.5;exitY=0;exitDx=0;exitDy=0;entryX=0.5;entryY=1;entryDx=0;entryDy=0;endArrow=none;endFill=0;" edge="1" parent="1" source="X9R9V341Ypi2XemGrjvR-14" target="X9R9V341Ypi2XemGrjvR-2">
          <mxGeometry relative="1" as="geometry" />
        </mxCell>
        <mxCell id="vxruLnOHUtcmjbPu3ubK-33" style="edgeStyle=orthogonalEdgeStyle;rounded=0;orthogonalLoop=1;jettySize=auto;html=1;exitX=0;exitY=0.5;exitDx=0;exitDy=0;entryX=0;entryY=0;entryDx=0;entryDy=0;endArrow=none;endFill=0;" edge="1" parent="1" source="X9R9V341Ypi2XemGrjvR-14" target="I68fqMjgQM5Uv_WliGqD-14">
          <mxGeometry relative="1" as="geometry">
            <mxPoint x="1670" y="320" as="targetPoint" />
            <mxPoint x="1750.5" y="-400" as="sourcePoint" />
            <Array as="points">
              <mxPoint x="1230" y="-400" />
              <mxPoint x="1230" y="290" />
              <mxPoint x="1670" y="290" />
            </Array>
          </mxGeometry>
        </mxCell>
        <mxCell id="X9R9V341Ypi2XemGrjvR-14" value="contains_show" style="rhombus;whiteSpace=wrap;html=1;fillColor=#1ba1e2;fontColor=#ffffff;strokeColor=#006EAF;" vertex="1" parent="1">
          <mxGeometry x="1535" y="-440" width="115" height="80" as="geometry" />
        </mxCell>
        <mxCell id="vxruLnOHUtcmjbPu3ubK-34" style="edgeStyle=orthogonalEdgeStyle;rounded=0;orthogonalLoop=1;jettySize=auto;html=1;exitX=1;exitY=0.5;exitDx=0;exitDy=0;entryX=0.5;entryY=0;entryDx=0;entryDy=0;endArrow=none;endFill=0;" edge="1" parent="1" source="vxruLnOHUtcmjbPu3ubK-12" target="vxruLnOHUtcmjbPu3ubK-32">
          <mxGeometry relative="1" as="geometry" />
        </mxCell>
        <mxCell id="vxruLnOHUtcmjbPu3ubK-12" value="&lt;div&gt;Review&lt;/div&gt;" style="rounded=0;whiteSpace=wrap;html=1;fillColor=#1ba1e2;fontColor=#ffffff;strokeColor=#006EAF;" vertex="1" parent="1">
          <mxGeometry x="485" y="-810" width="120" height="50" as="geometry" />
        </mxCell>
        <mxCell id="vxruLnOHUtcmjbPu3ubK-13" value="review_id" style="ellipse;whiteSpace=wrap;html=1;fillColor=#1ba1e2;fontColor=#ffffff;strokeColor=#006EAF;" vertex="1" parent="1">
          <mxGeometry x="355" y="-960" width="80" height="50" as="geometry" />
        </mxCell>
        <mxCell id="vxruLnOHUtcmjbPu3ubK-14" value="" style="endArrow=none;html=1;rounded=0;entryX=0.5;entryY=1;entryDx=0;entryDy=0;exitX=0.5;exitY=0;exitDx=0;exitDy=0;" edge="1" parent="1" source="vxruLnOHUtcmjbPu3ubK-12" target="vxruLnOHUtcmjbPu3ubK-13">
          <mxGeometry width="50" height="50" relative="1" as="geometry">
            <mxPoint x="530" y="-720" as="sourcePoint" />
            <mxPoint x="410" y="-880.0000000000005" as="targetPoint" />
          </mxGeometry>
        </mxCell>
        <mxCell id="vxruLnOHUtcmjbPu3ubK-15" value="user_id" style="ellipse;whiteSpace=wrap;html=1;fillColor=#1ba1e2;fontColor=#ffffff;strokeColor=#006EAF;" vertex="1" parent="1">
          <mxGeometry x="455" y="-980" width="80" height="50" as="geometry" />
        </mxCell>
        <mxCell id="vxruLnOHUtcmjbPu3ubK-16" value="" style="endArrow=none;html=1;rounded=0;entryX=0.5;entryY=1;entryDx=0;entryDy=0;exitX=0.5;exitY=0;exitDx=0;exitDy=0;" edge="1" parent="1" source="vxruLnOHUtcmjbPu3ubK-12" target="vxruLnOHUtcmjbPu3ubK-15">
          <mxGeometry width="50" height="50" relative="1" as="geometry">
            <mxPoint x="545" y="-730" as="sourcePoint" />
            <mxPoint x="575" y="-780" as="targetPoint" />
          </mxGeometry>
        </mxCell>
        <mxCell id="vxruLnOHUtcmjbPu3ubK-17" value="movie_id" style="ellipse;whiteSpace=wrap;html=1;fillColor=#1ba1e2;fontColor=#ffffff;strokeColor=#006EAF;" vertex="1" parent="1">
          <mxGeometry x="632.5" y="-990" width="80" height="50" as="geometry" />
        </mxCell>
        <mxCell id="vxruLnOHUtcmjbPu3ubK-18" value="" style="endArrow=none;html=1;rounded=0;exitX=0.5;exitY=0;exitDx=0;exitDy=0;entryX=0.5;entryY=1;entryDx=0;entryDy=0;" edge="1" parent="1" source="vxruLnOHUtcmjbPu3ubK-12" target="vxruLnOHUtcmjbPu3ubK-17">
          <mxGeometry width="50" height="50" relative="1" as="geometry">
            <mxPoint x="600" y="-710" as="sourcePoint" />
            <mxPoint x="675" y="-740" as="targetPoint" />
          </mxGeometry>
        </mxCell>
        <mxCell id="vxruLnOHUtcmjbPu3ubK-19" value="show_id" style="ellipse;whiteSpace=wrap;html=1;fillColor=#1ba1e2;fontColor=#ffffff;strokeColor=#006EAF;" vertex="1" parent="1">
          <mxGeometry x="730" y="-960" width="80" height="50" as="geometry" />
        </mxCell>
        <mxCell id="vxruLnOHUtcmjbPu3ubK-20" value="" style="endArrow=none;html=1;rounded=0;exitX=0.5;exitY=0;exitDx=0;exitDy=0;entryX=0.5;entryY=1;entryDx=0;entryDy=0;" edge="1" parent="1" source="vxruLnOHUtcmjbPu3ubK-12" target="vxruLnOHUtcmjbPu3ubK-19">
          <mxGeometry width="50" height="50" relative="1" as="geometry">
            <mxPoint x="645" y="-680" as="sourcePoint" />
            <mxPoint x="740" y="-760" as="targetPoint" />
          </mxGeometry>
        </mxCell>
        <mxCell id="vxruLnOHUtcmjbPu3ubK-21" value="" style="endArrow=none;html=1;rounded=0;entryX=0.5;entryY=1;entryDx=0;entryDy=0;" edge="1" parent="1" target="vxruLnOHUtcmjbPu3ubK-22">
          <mxGeometry width="50" height="50" relative="1" as="geometry">
            <mxPoint x="545" y="-810" as="sourcePoint" />
            <mxPoint x="815" y="-870" as="targetPoint" />
          </mxGeometry>
        </mxCell>
        <mxCell id="vxruLnOHUtcmjbPu3ubK-22" value="rating" style="ellipse;whiteSpace=wrap;html=1;fillColor=#1ba1e2;fontColor=#ffffff;strokeColor=#006EAF;" vertex="1" parent="1">
          <mxGeometry x="715" y="-870" width="80" height="50" as="geometry" />
        </mxCell>
        <mxCell id="vxruLnOHUtcmjbPu3ubK-25" style="edgeStyle=orthogonalEdgeStyle;rounded=0;orthogonalLoop=1;jettySize=auto;html=1;exitX=0.5;exitY=0;exitDx=0;exitDy=0;entryX=0.5;entryY=1;entryDx=0;entryDy=0;endArrow=none;endFill=0;" edge="1" parent="1" source="vxruLnOHUtcmjbPu3ubK-24" target="vxruLnOHUtcmjbPu3ubK-12">
          <mxGeometry relative="1" as="geometry" />
        </mxCell>
        <mxCell id="vxruLnOHUtcmjbPu3ubK-24" value="writes_review" style="rhombus;whiteSpace=wrap;html=1;fillColor=#1ba1e2;fontColor=#ffffff;strokeColor=#006EAF;" vertex="1" parent="1">
          <mxGeometry x="460" y="-390" width="115" height="80" as="geometry" />
        </mxCell>
        <mxCell id="vxruLnOHUtcmjbPu3ubK-26" style="edgeStyle=orthogonalEdgeStyle;rounded=0;orthogonalLoop=1;jettySize=auto;html=1;exitX=0.5;exitY=1;exitDx=0;exitDy=0;entryX=0.75;entryY=0;entryDx=0;entryDy=0;" edge="1" parent="1" source="vxruLnOHUtcmjbPu3ubK-24" target="zsTLEiBzGREs_1x2PoIM-5">
          <mxGeometry relative="1" as="geometry">
            <mxPoint x="370" y="-130" as="targetPoint" />
            <Array as="points">
              <mxPoint x="518" y="-220" />
              <mxPoint x="370" y="-220" />
            </Array>
          </mxGeometry>
        </mxCell>
        <mxCell id="vxruLnOHUtcmjbPu3ubK-30" style="edgeStyle=orthogonalEdgeStyle;rounded=0;orthogonalLoop=1;jettySize=auto;html=1;exitX=1;exitY=0.5;exitDx=0;exitDy=0;entryX=0;entryY=0.5;entryDx=0;entryDy=0;endArrow=none;endFill=0;" edge="1" parent="1" source="vxruLnOHUtcmjbPu3ubK-28" target="vxruLnOHUtcmjbPu3ubK-12">
          <mxGeometry relative="1" as="geometry" />
        </mxCell>
        <mxCell id="vxruLnOHUtcmjbPu3ubK-31" style="edgeStyle=orthogonalEdgeStyle;rounded=0;orthogonalLoop=1;jettySize=auto;html=1;exitX=0.5;exitY=0;exitDx=0;exitDy=0;entryX=0;entryY=0.5;entryDx=0;entryDy=0;endArrow=classic;endFill=1;" edge="1" parent="1" source="vxruLnOHUtcmjbPu3ubK-28" target="zsTLEiBzGREs_1x2PoIM-4">
          <mxGeometry relative="1" as="geometry" />
        </mxCell>
        <mxCell id="vxruLnOHUtcmjbPu3ubK-28" value="reviews_movie" style="rhombus;whiteSpace=wrap;html=1;fillColor=#1ba1e2;fontColor=#ffffff;strokeColor=#006EAF;" vertex="1" parent="1">
          <mxGeometry x="240" y="-590" width="115" height="80" as="geometry" />
        </mxCell>
        <mxCell id="vxruLnOHUtcmjbPu3ubK-35" style="edgeStyle=orthogonalEdgeStyle;rounded=0;orthogonalLoop=1;jettySize=auto;html=1;exitX=0.5;exitY=1;exitDx=0;exitDy=0;entryX=0;entryY=0.75;entryDx=0;entryDy=0;" edge="1" parent="1" source="vxruLnOHUtcmjbPu3ubK-32" target="I68fqMjgQM5Uv_WliGqD-14">
          <mxGeometry relative="1" as="geometry">
            <mxPoint x="1360" y="380" as="targetPoint" />
            <Array as="points">
              <mxPoint x="618" y="490" />
              <mxPoint x="1185" y="490" />
              <mxPoint x="1185" y="378" />
            </Array>
          </mxGeometry>
        </mxCell>
        <mxCell id="vxruLnOHUtcmjbPu3ubK-32" value="reviews_show" style="rhombus;whiteSpace=wrap;html=1;fillColor=#1ba1e2;fontColor=#ffffff;strokeColor=#006EAF;" vertex="1" parent="1">
          <mxGeometry x="560" y="-170" width="115" height="80" as="geometry" />
        </mxCell>
        <mxCell id="vxruLnOHUtcmjbPu3ubK-82" style="edgeStyle=orthogonalEdgeStyle;rounded=0;orthogonalLoop=1;jettySize=auto;html=1;exitX=1;exitY=0.5;exitDx=0;exitDy=0;entryX=0.5;entryY=0;entryDx=0;entryDy=0;endArrow=none;endFill=0;startArrow=classic;startFill=1;" edge="1" parent="1" source="vxruLnOHUtcmjbPu3ubK-40" target="vxruLnOHUtcmjbPu3ubK-79">
          <mxGeometry relative="1" as="geometry" />
        </mxCell>
        <mxCell id="vxruLnOHUtcmjbPu3ubK-40" value="Discussion" style="rounded=0;whiteSpace=wrap;html=1;fillColor=#1ba1e2;fontColor=#ffffff;strokeColor=#006EAF;" vertex="1" parent="1">
          <mxGeometry x="985" y="-810" width="120" height="50" as="geometry" />
        </mxCell>
        <mxCell id="vxruLnOHUtcmjbPu3ubK-41" value="discussion_id" style="ellipse;whiteSpace=wrap;html=1;fillColor=#1ba1e2;fontColor=#ffffff;strokeColor=#006EAF;" vertex="1" parent="1">
          <mxGeometry x="895" y="-910" width="80" height="50" as="geometry" />
        </mxCell>
        <mxCell id="vxruLnOHUtcmjbPu3ubK-42" value="" style="endArrow=none;html=1;rounded=0;entryX=0.5;entryY=1;entryDx=0;entryDy=0;exitX=0.5;exitY=0;exitDx=0;exitDy=0;" edge="1" parent="1" source="vxruLnOHUtcmjbPu3ubK-40" target="vxruLnOHUtcmjbPu3ubK-41">
          <mxGeometry width="50" height="50" relative="1" as="geometry">
            <mxPoint x="940" y="-620" as="sourcePoint" />
            <mxPoint x="945" y="-690" as="targetPoint" />
          </mxGeometry>
        </mxCell>
        <mxCell id="vxruLnOHUtcmjbPu3ubK-43" value="title" style="ellipse;whiteSpace=wrap;html=1;fillColor=#1ba1e2;fontColor=#ffffff;strokeColor=#006EAF;" vertex="1" parent="1">
          <mxGeometry x="985" y="-940" width="80" height="50" as="geometry" />
        </mxCell>
        <mxCell id="vxruLnOHUtcmjbPu3ubK-44" value="" style="endArrow=none;html=1;rounded=0;entryX=0.5;entryY=1;entryDx=0;entryDy=0;exitX=0.5;exitY=0;exitDx=0;exitDy=0;" edge="1" parent="1" source="vxruLnOHUtcmjbPu3ubK-40" target="vxruLnOHUtcmjbPu3ubK-43">
          <mxGeometry width="50" height="50" relative="1" as="geometry">
            <mxPoint x="955" y="-630" as="sourcePoint" />
            <mxPoint x="985" y="-680" as="targetPoint" />
          </mxGeometry>
        </mxCell>
        <mxCell id="vxruLnOHUtcmjbPu3ubK-45" value="created_at" style="ellipse;whiteSpace=wrap;html=1;fillColor=#1ba1e2;fontColor=#ffffff;strokeColor=#006EAF;" vertex="1" parent="1">
          <mxGeometry x="1085" y="-950" width="80" height="50" as="geometry" />
        </mxCell>
        <mxCell id="vxruLnOHUtcmjbPu3ubK-46" value="" style="endArrow=none;html=1;rounded=0;exitX=0.5;exitY=0;exitDx=0;exitDy=0;entryX=0.5;entryY=1;entryDx=0;entryDy=0;" edge="1" parent="1" source="vxruLnOHUtcmjbPu3ubK-40" target="vxruLnOHUtcmjbPu3ubK-45">
          <mxGeometry width="50" height="50" relative="1" as="geometry">
            <mxPoint x="1010" y="-610" as="sourcePoint" />
            <mxPoint x="1085" y="-640" as="targetPoint" />
          </mxGeometry>
        </mxCell>
        <mxCell id="vxruLnOHUtcmjbPu3ubK-47" value="user_id" style="ellipse;whiteSpace=wrap;html=1;fillColor=#1ba1e2;fontColor=#ffffff;strokeColor=#006EAF;" vertex="1" parent="1">
          <mxGeometry x="1150" y="-910" width="80" height="50" as="geometry" />
        </mxCell>
        <mxCell id="vxruLnOHUtcmjbPu3ubK-48" value="" style="endArrow=none;html=1;rounded=0;exitX=0.5;exitY=0;exitDx=0;exitDy=0;entryX=0.5;entryY=1;entryDx=0;entryDy=0;" edge="1" parent="1" source="vxruLnOHUtcmjbPu3ubK-40" target="vxruLnOHUtcmjbPu3ubK-47">
          <mxGeometry width="50" height="50" relative="1" as="geometry">
            <mxPoint x="1055" y="-580" as="sourcePoint" />
            <mxPoint x="1150" y="-660" as="targetPoint" />
          </mxGeometry>
        </mxCell>
        <mxCell id="vxruLnOHUtcmjbPu3ubK-52" style="edgeStyle=orthogonalEdgeStyle;rounded=0;orthogonalLoop=1;jettySize=auto;html=1;exitX=0.5;exitY=0;exitDx=0;exitDy=0;entryX=0.5;entryY=1;entryDx=0;entryDy=0;endArrow=none;endFill=0;" edge="1" parent="1" source="vxruLnOHUtcmjbPu3ubK-51" target="vxruLnOHUtcmjbPu3ubK-40">
          <mxGeometry relative="1" as="geometry" />
        </mxCell>
        <mxCell id="vxruLnOHUtcmjbPu3ubK-51" value="starts_discussion" style="rhombus;whiteSpace=wrap;html=1;fillColor=#1ba1e2;fontColor=#ffffff;strokeColor=#006EAF;" vertex="1" parent="1">
          <mxGeometry x="970" y="-430" width="115" height="80" as="geometry" />
        </mxCell>
        <mxCell id="vxruLnOHUtcmjbPu3ubK-65" style="edgeStyle=orthogonalEdgeStyle;rounded=0;orthogonalLoop=1;jettySize=auto;html=1;exitX=0.5;exitY=1;exitDx=0;exitDy=0;endArrow=none;endFill=0;" edge="1" parent="1" source="vxruLnOHUtcmjbPu3ubK-64">
          <mxGeometry relative="1" as="geometry">
            <mxPoint x="545" y="-810" as="targetPoint" />
          </mxGeometry>
        </mxCell>
        <mxCell id="vxruLnOHUtcmjbPu3ubK-64" value="content" style="ellipse;whiteSpace=wrap;html=1;fillColor=#1ba1e2;fontColor=#ffffff;strokeColor=#006EAF;" vertex="1" parent="1">
          <mxGeometry x="545" y="-980" width="80" height="50" as="geometry" />
        </mxCell>
        <mxCell id="vxruLnOHUtcmjbPu3ubK-84" style="edgeStyle=orthogonalEdgeStyle;rounded=0;orthogonalLoop=1;jettySize=auto;html=1;exitX=1;exitY=0.5;exitDx=0;exitDy=0;entryX=0.5;entryY=1;entryDx=0;entryDy=0;endArrow=none;endFill=0;" edge="1" parent="1" source="vxruLnOHUtcmjbPu3ubK-66" target="vxruLnOHUtcmjbPu3ubK-79">
          <mxGeometry relative="1" as="geometry" />
        </mxCell>
        <mxCell id="vxruLnOHUtcmjbPu3ubK-66" value="Comment" style="shape=ext;double=1;rounded=0;whiteSpace=wrap;html=1;fillColor=#1ba1e2;fontColor=#ffffff;strokeColor=#006EAF;" vertex="1" parent="1">
          <mxGeometry x="940" y="-80" width="120" height="60" as="geometry" />
        </mxCell>
        <mxCell id="vxruLnOHUtcmjbPu3ubK-70" value="comment_number" style="ellipse;whiteSpace=wrap;html=1;fillColor=#1ba1e2;fontColor=#ffffff;strokeColor=#006EAF;" vertex="1" parent="1">
          <mxGeometry x="725" y="95" width="110" height="50" as="geometry" />
        </mxCell>
        <mxCell id="vxruLnOHUtcmjbPu3ubK-71" value="discussion_id" style="ellipse;whiteSpace=wrap;html=1;fillColor=#1ba1e2;fontColor=#ffffff;strokeColor=#006EAF;" vertex="1" parent="1">
          <mxGeometry x="845" y="65" width="80" height="50" as="geometry" />
        </mxCell>
        <mxCell id="vxruLnOHUtcmjbPu3ubK-72" value="user_id" style="ellipse;whiteSpace=wrap;html=1;fillColor=#1ba1e2;fontColor=#ffffff;strokeColor=#006EAF;" vertex="1" parent="1">
          <mxGeometry x="930" y="135" width="80" height="50" as="geometry" />
        </mxCell>
        <mxCell id="vxruLnOHUtcmjbPu3ubK-73" value="content" style="ellipse;whiteSpace=wrap;html=1;fillColor=#1ba1e2;fontColor=#ffffff;strokeColor=#006EAF;" vertex="1" parent="1">
          <mxGeometry x="1010" y="95" width="80" height="50" as="geometry" />
        </mxCell>
        <mxCell id="vxruLnOHUtcmjbPu3ubK-75" value="" style="endArrow=none;html=1;rounded=0;entryX=0.5;entryY=1;entryDx=0;entryDy=0;exitX=0.5;exitY=0;exitDx=0;exitDy=0;" edge="1" parent="1" source="vxruLnOHUtcmjbPu3ubK-70" target="vxruLnOHUtcmjbPu3ubK-66">
          <mxGeometry width="50" height="50" relative="1" as="geometry">
            <mxPoint x="950" y="190" as="sourcePoint" />
            <mxPoint x="1000" y="140" as="targetPoint" />
          </mxGeometry>
        </mxCell>
        <mxCell id="vxruLnOHUtcmjbPu3ubK-76" value="" style="endArrow=none;html=1;rounded=0;entryX=0.5;entryY=1;entryDx=0;entryDy=0;exitX=0.5;exitY=0;exitDx=0;exitDy=0;" edge="1" parent="1" source="vxruLnOHUtcmjbPu3ubK-71" target="vxruLnOHUtcmjbPu3ubK-66">
          <mxGeometry width="50" height="50" relative="1" as="geometry">
            <mxPoint x="1010" y="240" as="sourcePoint" />
            <mxPoint x="1155" y="140" as="targetPoint" />
          </mxGeometry>
        </mxCell>
        <mxCell id="vxruLnOHUtcmjbPu3ubK-77" value="" style="endArrow=none;html=1;rounded=0;exitX=0.5;exitY=0;exitDx=0;exitDy=0;entryX=0.5;entryY=1;entryDx=0;entryDy=0;" edge="1" parent="1" source="vxruLnOHUtcmjbPu3ubK-72" target="vxruLnOHUtcmjbPu3ubK-66">
          <mxGeometry width="50" height="50" relative="1" as="geometry">
            <mxPoint x="1080" y="250" as="sourcePoint" />
            <mxPoint x="1000" y="110" as="targetPoint" />
          </mxGeometry>
        </mxCell>
        <mxCell id="vxruLnOHUtcmjbPu3ubK-78" value="" style="endArrow=none;html=1;rounded=0;entryX=0.5;entryY=1;entryDx=0;entryDy=0;exitX=0.5;exitY=0;exitDx=0;exitDy=0;" edge="1" parent="1" source="vxruLnOHUtcmjbPu3ubK-73" target="vxruLnOHUtcmjbPu3ubK-66">
          <mxGeometry width="50" height="50" relative="1" as="geometry">
            <mxPoint x="1140" y="220" as="sourcePoint" />
            <mxPoint x="1285" y="120" as="targetPoint" />
          </mxGeometry>
        </mxCell>
        <mxCell id="vxruLnOHUtcmjbPu3ubK-79" value="" style="rhombus;whiteSpace=wrap;html=1;fillColor=#1ba1e2;fontColor=#ffffff;strokeColor=#006EAF;" vertex="1" parent="1">
          <mxGeometry x="1085" y="-260" width="120" height="80" as="geometry" />
        </mxCell>
        <mxCell id="vxruLnOHUtcmjbPu3ubK-80" value="has_comment" style="rhombus;whiteSpace=wrap;html=1;fillColor=#1ba1e2;fontColor=#ffffff;strokeColor=#006EAF;shadow=0;" vertex="1" parent="1">
          <mxGeometry x="1090" y="-255" width="110" height="70" as="geometry" />
        </mxCell>
        <mxCell id="vxruLnOHUtcmjbPu3ubK-91" style="edgeStyle=orthogonalEdgeStyle;rounded=0;orthogonalLoop=1;jettySize=auto;html=1;exitX=1;exitY=0.5;exitDx=0;exitDy=0;entryX=0;entryY=0.5;entryDx=0;entryDy=0;endArrow=none;endFill=0;" edge="1" parent="1" source="vxruLnOHUtcmjbPu3ubK-87" target="vxruLnOHUtcmjbPu3ubK-66">
          <mxGeometry relative="1" as="geometry" />
        </mxCell>
        <mxCell id="vxruLnOHUtcmjbPu3ubK-87" value="writes_comment" style="rhombus;whiteSpace=wrap;html=1;fillColor=#1ba1e2;fontColor=#ffffff;strokeColor=#006EAF;" vertex="1" parent="1">
          <mxGeometry x="682.5" y="-30" width="115" height="80" as="geometry" />
        </mxCell>
        <mxCell id="vxruLnOHUtcmjbPu3ubK-96" style="edgeStyle=orthogonalEdgeStyle;rounded=0;orthogonalLoop=1;jettySize=auto;html=1;exitX=0.5;exitY=1;exitDx=0;exitDy=0;entryX=0.5;entryY=0;entryDx=0;entryDy=0;" edge="1" parent="1" source="vxruLnOHUtcmjbPu3ubK-95" target="zsTLEiBzGREs_1x2PoIM-5">
          <mxGeometry relative="1" as="geometry" />
        </mxCell>
        <mxCell id="vxruLnOHUtcmjbPu3ubK-97" style="edgeStyle=orthogonalEdgeStyle;rounded=0;orthogonalLoop=1;jettySize=auto;html=1;exitX=0.5;exitY=0;exitDx=0;exitDy=0;entryX=0.25;entryY=1;entryDx=0;entryDy=0;" edge="1" parent="1" source="vxruLnOHUtcmjbPu3ubK-95" target="X9R9V341Ypi2XemGrjvR-2">
          <mxGeometry relative="1" as="geometry" />
        </mxCell>
        <mxCell id="vxruLnOHUtcmjbPu3ubK-95" value="owns_watchlist" style="rhombus;whiteSpace=wrap;html=1;fillColor=#1ba1e2;fontColor=#ffffff;strokeColor=#006EAF;" vertex="1" parent="1">
          <mxGeometry x="220" y="-400" width="115" height="80" as="geometry" />
        </mxCell>
        <mxCell id="vxruLnOHUtcmjbPu3ubK-99" value="title" style="ellipse;whiteSpace=wrap;html=1;fillColor=#1ba1e2;fontColor=#ffffff;strokeColor=#006EAF;" vertex="1" parent="1">
          <mxGeometry x="1545" y="-280" width="75" height="50" as="geometry" />
        </mxCell>
        <mxCell id="vxruLnOHUtcmjbPu3ubK-100" value="" style="endArrow=none;html=1;rounded=0;entryX=0.5;entryY=1;entryDx=0;entryDy=0;exitX=0.5;exitY=0;exitDx=0;exitDy=0;" edge="1" parent="1" source="I68fqMjgQM5Uv_WliGqD-103" target="vxruLnOHUtcmjbPu3ubK-99">
          <mxGeometry width="50" height="50" relative="1" as="geometry">
            <mxPoint x="1695" y="-80" as="sourcePoint" />
            <mxPoint x="1670" y="-70" as="targetPoint" />
          </mxGeometry>
        </mxCell>
        <mxCell id="vxruLnOHUtcmjbPu3ubK-102" style="edgeStyle=orthogonalEdgeStyle;rounded=0;orthogonalLoop=1;jettySize=auto;html=1;exitX=0;exitY=0.5;exitDx=0;exitDy=0;entryX=0.75;entryY=1;entryDx=0;entryDy=0;" edge="1" parent="1" source="vxruLnOHUtcmjbPu3ubK-101" target="zsTLEiBzGREs_1x2PoIM-4">
          <mxGeometry relative="1" as="geometry">
            <mxPoint x="210" y="-1090" as="targetPoint" />
          </mxGeometry>
        </mxCell>
        <mxCell id="vxruLnOHUtcmjbPu3ubK-103" style="edgeStyle=orthogonalEdgeStyle;rounded=0;orthogonalLoop=1;jettySize=auto;html=1;exitX=1;exitY=0.5;exitDx=0;exitDy=0;entryX=0;entryY=0.5;entryDx=0;entryDy=0;endArrow=none;endFill=0;" edge="1" parent="1" source="vxruLnOHUtcmjbPu3ubK-101" target="vxruLnOHUtcmjbPu3ubK-40">
          <mxGeometry relative="1" as="geometry" />
        </mxCell>
        <mxCell id="vxruLnOHUtcmjbPu3ubK-101" value="about_movie" style="rhombus;whiteSpace=wrap;html=1;fillColor=#1ba1e2;fontColor=#ffffff;strokeColor=#006EAF;" vertex="1" parent="1">
          <mxGeometry x="790" y="-720" width="115" height="80" as="geometry" />
        </mxCell>
        <mxCell id="vxruLnOHUtcmjbPu3ubK-106" style="edgeStyle=orthogonalEdgeStyle;rounded=0;orthogonalLoop=1;jettySize=auto;html=1;exitX=0.5;exitY=0;exitDx=0;exitDy=0;entryX=0.5;entryY=1;entryDx=0;entryDy=0;endArrow=none;endFill=0;" edge="1" parent="1" source="vxruLnOHUtcmjbPu3ubK-105" target="vxruLnOHUtcmjbPu3ubK-40">
          <mxGeometry relative="1" as="geometry" />
        </mxCell>
        <mxCell id="vxruLnOHUtcmjbPu3ubK-107" style="edgeStyle=orthogonalEdgeStyle;rounded=0;orthogonalLoop=1;jettySize=auto;html=1;exitX=0.5;exitY=1;exitDx=0;exitDy=0;entryX=0;entryY=0.5;entryDx=0;entryDy=0;" edge="1" parent="1" source="vxruLnOHUtcmjbPu3ubK-105" target="I68fqMjgQM5Uv_WliGqD-14">
          <mxGeometry relative="1" as="geometry">
            <Array as="points">
              <mxPoint x="1273" y="-550" />
              <mxPoint x="1210" y="-550" />
              <mxPoint x="1210" y="365" />
            </Array>
          </mxGeometry>
        </mxCell>
        <mxCell id="vxruLnOHUtcmjbPu3ubK-105" value="about_show" style="rhombus;whiteSpace=wrap;html=1;fillColor=#1ba1e2;fontColor=#ffffff;strokeColor=#006EAF;" vertex="1" parent="1">
          <mxGeometry x="1215" y="-680" width="115" height="80" as="geometry" />
        </mxCell>
      </root>
    </mxGraphModel>
  </diagram>
</mxfile>
